# xmcd CD database file
#
# Track frame offsets:
#	150
#	15532
#	32075
#	46463
#	63900
#	80130
#	98597
#	113198
#	132829
#	150224
#	167014
#	184108
#
# Disc length: 2721 seconds
#
# Revision: 1
# Processed by: cddbd v1.5.1PL0 Copyright (c) Steve Scherf et al.
# Submitted via: CDex 1.51
#
DISCID=8d0a9f0c
DTITLE=Jay Clark - Pen To Paper
DYEAR=2004
DGENRE=Country
TTITLE0=Goin' Home
TTITLE1=Another Night
TTITLE2=Catfish
TTITLE3=Coal Minin' Man
TTITLE4=Lately
TTITLE5=Sunday Afternoon
TTITLE6=Regurgitated
TTITLE7=Hills of Home
TTITLE8=Spinnin' and Grinnin'
TTITLE9=Rainin' Down On Me
TTITLE10=Pen To Paper
TTITLE11=The Blind Man
EXTD=YEAR: 2004
EXTT0=
EXTT1=
EXTT2=
EXTT3=
EXTT4=
EXTT5=
EXTT6=
EXTT7=
EXTT8=
EXTT9=
EXTT10=
EXTT11=
PLAYORDER=
